<?xml version="1.0" encoding="UTF-8" standalone="no"?>
<!DOCTYPE svg PUBLIC "-//W3C//DTD SVG 1.1//EN"
 "http://www.w3.org/Graphics/SVG/1.1/DTD/svg11.dtd">
<!-- Generated by graphviz version 2.40.1 (20161225.0304)
 -->
<!-- Title: snakemake_dag Pages: 1 -->
<svg width="311pt" height="188pt"
 viewBox="0.00 0.00 310.50 188.00" xmlns="http://www.w3.org/2000/svg" xmlns:xlink="http://www.w3.org/1999/xlink">
<g id="graph0" class="graph" transform="scale(1 1) rotate(0) translate(4 184)">
<title>snakemake_dag</title>
<polygon fill="#ffffff" stroke="transparent" points="-4,4 -4,-184 306.5,-184 306.5,4 -4,4"/>
<!-- 0 -->
<g id="node1" class="node">
<title>0</title>
<path fill="none" stroke="#bed856" stroke-width="2" d="M187,-36C187,-36 131,-36 131,-36 125,-36 119,-30 119,-24 119,-24 119,-12 119,-12 119,-6 125,0 131,0 131,0 187,0 187,0 193,0 199,-6 199,-12 199,-12 199,-24 199,-24 199,-30 193,-36 187,-36"/>
<text text-anchor="middle" x="159" y="-15.5" font-family="sans" font-size="10.00" fill="#000000">get_all_meta</text>
</g>
<!-- 1 -->
<g id="node2" class="node">
<title>1</title>
<path fill="none" stroke="#56b1d8" stroke-width="2" d="M86,-180C86,-180 12,-180 12,-180 6,-180 0,-174 0,-168 0,-168 0,-156 0,-156 0,-150 6,-144 12,-144 12,-144 86,-144 86,-144 92,-144 98,-150 98,-156 98,-156 98,-168 98,-168 98,-174 92,-180 86,-180"/>
<text text-anchor="middle" x="49" y="-159.5" font-family="sans" font-size="10.00" fill="#000000">get_meta_single</text>
</g>
<!-- 3 -->
<g id="node4" class="node">
<title>3</title>
<path fill="none" stroke="#78d856" stroke-width="2" d="M183.5,-108C183.5,-108 134.5,-108 134.5,-108 128.5,-108 122.5,-102 122.5,-96 122.5,-96 122.5,-84 122.5,-84 122.5,-78 128.5,-72 134.5,-72 134.5,-72 183.5,-72 183.5,-72 189.5,-72 195.5,-78 195.5,-84 195.5,-84 195.5,-96 195.5,-96 195.5,-102 189.5,-108 183.5,-108"/>
<text text-anchor="middle" x="159" y="-87.5" font-family="sans" font-size="10.00" fill="#000000">define_tech</text>
</g>
<!-- 1&#45;&gt;3 -->
<g id="edge2" class="edge">
<title>1&#45;&gt;3</title>
<path fill="none" stroke="#c0c0c0" stroke-width="2" d="M76.7576,-143.8314C90.697,-134.7074 107.7598,-123.539 122.7231,-113.7449"/>
<polygon fill="#c0c0c0" stroke="#c0c0c0" stroke-width="2" points="124.801,-116.5679 131.2512,-108.1628 120.9674,-110.711 124.801,-116.5679"/>
</g>
<!-- 2 -->
<g id="node3" class="node">
<title>2</title>
<path fill="none" stroke="#56c9d8" stroke-width="2" d="M189.5,-180C189.5,-180 128.5,-180 128.5,-180 122.5,-180 116.5,-174 116.5,-168 116.5,-168 116.5,-156 116.5,-156 116.5,-150 122.5,-144 128.5,-144 128.5,-144 189.5,-144 189.5,-144 195.5,-144 201.5,-150 201.5,-156 201.5,-156 201.5,-168 201.5,-168 201.5,-174 195.5,-180 189.5,-180"/>
<text text-anchor="middle" x="159" y="-159.5" font-family="sans" font-size="10.00" fill="#000000">get_whitelists</text>
</g>
<!-- 2&#45;&gt;3 -->
<g id="edge3" class="edge">
<title>2&#45;&gt;3</title>
<path fill="none" stroke="#c0c0c0" stroke-width="2" d="M159,-143.8314C159,-136.131 159,-126.9743 159,-118.4166"/>
<polygon fill="#c0c0c0" stroke="#c0c0c0" stroke-width="2" points="162.5001,-118.4132 159,-108.4133 155.5001,-118.4133 162.5001,-118.4132"/>
</g>
<!-- 3&#45;&gt;0 -->
<g id="edge1" class="edge">
<title>3&#45;&gt;0</title>
<path fill="none" stroke="#c0c0c0" stroke-width="2" d="M159,-71.8314C159,-64.131 159,-54.9743 159,-46.4166"/>
<polygon fill="#c0c0c0" stroke="#c0c0c0" stroke-width="2" points="162.5001,-46.4132 159,-36.4133 155.5001,-46.4133 162.5001,-46.4132"/>
</g>
<!-- 4 -->
<g id="node5" class="node">
<title>4</title>
<path fill="none" stroke="#56d863" stroke-width="2" d="M290.5,-180C290.5,-180 231.5,-180 231.5,-180 225.5,-180 219.5,-174 219.5,-168 219.5,-168 219.5,-156 219.5,-156 219.5,-150 225.5,-144 231.5,-144 231.5,-144 290.5,-144 290.5,-144 296.5,-144 302.5,-150 302.5,-156 302.5,-156 302.5,-168 302.5,-168 302.5,-174 296.5,-180 290.5,-180"/>
<text text-anchor="middle" x="261" y="-159.5" font-family="sans" font-size="10.00" fill="#000000">ncbi_prefetch</text>
</g>
<!-- 4&#45;&gt;3 -->
<g id="edge4" class="edge">
<title>4&#45;&gt;3</title>
<path fill="none" stroke="#c0c0c0" stroke-width="2" d="M235.2611,-143.8314C222.4563,-134.7927 206.8091,-123.7476 193.0281,-114.0198"/>
<polygon fill="#c0c0c0" stroke="#c0c0c0" stroke-width="2" points="194.9188,-111.0703 184.7307,-108.1628 190.882,-116.7891 194.9188,-111.0703"/>
</g>
</g>
</svg>
