<?xml version="1.0" encoding="UTF-8" standalone="no"?>
<!DOCTYPE svg PUBLIC "-//W3C//DTD SVG 1.1//EN"
 "http://www.w3.org/Graphics/SVG/1.1/DTD/svg11.dtd">
<!-- Generated by graphviz version 2.40.1 (20161225.0304)
 -->
<!-- Title: snakemake_dag Pages: 1 -->
<svg width="456pt" height="548pt"
 viewBox="0.00 0.00 455.50 548.00" xmlns="http://www.w3.org/2000/svg" xmlns:xlink="http://www.w3.org/1999/xlink">
<g id="graph0" class="graph" transform="scale(1 1) rotate(0) translate(4 544)">
<title>snakemake_dag</title>
<polygon fill="#ffffff" stroke="transparent" points="-4,4 -4,-544 451.5,-544 451.5,4 -4,4"/>
<!-- 0 -->
<g id="node1" class="node">
<title>0</title>
<path fill="none" stroke="#56c9d8" stroke-width="2" d="M310,-36C310,-36 263,-36 263,-36 257,-36 251,-30 251,-24 251,-24 251,-12 251,-12 251,-6 257,0 263,0 263,0 310,0 310,0 316,0 322,-6 322,-12 322,-12 322,-24 322,-24 322,-30 316,-36 310,-36"/>
<text text-anchor="middle" x="286.5" y="-15.5" font-family="sans" font-size="10.00" fill="#000000">process_all</text>
</g>
<!-- 1 -->
<g id="node2" class="node">
<title>1</title>
<path fill="none" stroke="#d8c356" stroke-width="2" d="M283,-252C283,-252 214,-252 214,-252 208,-252 202,-246 202,-240 202,-240 202,-228 202,-228 202,-222 208,-216 214,-216 214,-216 283,-216 283,-216 289,-216 295,-222 295,-228 295,-228 295,-240 295,-240 295,-246 289,-252 283,-252"/>
<text text-anchor="middle" x="248.5" y="-231.5" font-family="sans" font-size="10.00" fill="#000000">seurat_analysis</text>
</g>
<!-- 1&#45;&gt;0 -->
<g id="edge2" class="edge">
<title>1&#45;&gt;0</title>
<path fill="none" stroke="#c0c0c0" stroke-width="2" d="M238.6361,-215.7982C223.256,-184.7843 197.5827,-120.361 220.5,-72 226.0529,-60.2821 235.5317,-50.2614 245.6001,-42.1482"/>
<polygon fill="#c0c0c0" stroke="#c0c0c0" stroke-width="2" points="247.831,-44.8503 253.7375,-36.0546 243.6351,-39.2472 247.831,-44.8503"/>
</g>
<!-- 10 -->
<g id="node11" class="node">
<title>10</title>
<path fill="none" stroke="#bed856" stroke-width="2" d="M275,-108C275,-108 242,-108 242,-108 236,-108 230,-102 230,-96 230,-96 230,-84 230,-84 230,-78 236,-72 242,-72 242,-72 275,-72 275,-72 281,-72 287,-78 287,-84 287,-84 287,-96 287,-96 287,-102 281,-108 275,-108"/>
<text text-anchor="middle" x="258.5" y="-87.5" font-family="sans" font-size="10.00" fill="#000000">markers</text>
</g>
<!-- 1&#45;&gt;10 -->
<g id="edge13" class="edge">
<title>1&#45;&gt;10</title>
<path fill="none" stroke="#c0c0c0" stroke-width="2" d="M249.7665,-215.7623C251.4721,-191.201 254.5245,-147.2474 256.531,-118.3541"/>
<polygon fill="#c0c0c0" stroke="#c0c0c0" stroke-width="2" points="260.0425,-118.3081 257.2438,-108.0896 253.0593,-117.8231 260.0425,-118.3081"/>
</g>
<!-- 11 -->
<g id="node12" class="node">
<title>11</title>
<path fill="none" stroke="#d88556" stroke-width="2" d="M360,-180C360,-180 289,-180 289,-180 283,-180 277,-174 277,-168 277,-168 277,-156 277,-156 277,-150 283,-144 289,-144 289,-144 360,-144 360,-144 366,-144 372,-150 372,-156 372,-156 372,-168 372,-168 372,-174 366,-180 360,-180"/>
<text text-anchor="middle" x="324.5" y="-159.5" font-family="sans" font-size="10.00" fill="#000000">merge_samples</text>
</g>
<!-- 1&#45;&gt;11 -->
<g id="edge14" class="edge">
<title>1&#45;&gt;11</title>
<path fill="none" stroke="#c0c0c0" stroke-width="2" d="M267.678,-215.8314C276.8588,-207.1337 288.0006,-196.5783 297.9776,-187.1265"/>
<polygon fill="#c0c0c0" stroke="#c0c0c0" stroke-width="2" points="300.4757,-189.5811 305.3281,-180.1628 295.6615,-184.4995 300.4757,-189.5811"/>
</g>
<!-- 2 -->
<g id="node3" class="node">
<title>2</title>
<path fill="none" stroke="#d86e56" stroke-width="2" d="M287,-324C287,-324 210,-324 210,-324 204,-324 198,-318 198,-312 198,-312 198,-300 198,-300 198,-294 204,-288 210,-288 210,-288 287,-288 287,-288 293,-288 299,-294 299,-300 299,-300 299,-312 299,-312 299,-318 293,-324 287,-324"/>
<text text-anchor="middle" x="248.5" y="-303.5" font-family="sans" font-size="10.00" fill="#000000">filter_counts_star</text>
</g>
<!-- 2&#45;&gt;1 -->
<g id="edge5" class="edge">
<title>2&#45;&gt;1</title>
<path fill="none" stroke="#c0c0c0" stroke-width="2" d="M248.5,-287.8314C248.5,-280.131 248.5,-270.9743 248.5,-262.4166"/>
<polygon fill="#c0c0c0" stroke="#c0c0c0" stroke-width="2" points="252.0001,-262.4132 248.5,-252.4133 245.0001,-262.4133 252.0001,-262.4132"/>
</g>
<!-- 3 -->
<g id="node4" class="node">
<title>3</title>
<path fill="none" stroke="#8fd856" stroke-width="2" d="M264.5,-396C264.5,-396 232.5,-396 232.5,-396 226.5,-396 220.5,-390 220.5,-384 220.5,-384 220.5,-372 220.5,-372 220.5,-366 226.5,-360 232.5,-360 232.5,-360 264.5,-360 264.5,-360 270.5,-360 276.5,-366 276.5,-372 276.5,-372 276.5,-384 276.5,-384 276.5,-390 270.5,-396 264.5,-396"/>
<text text-anchor="middle" x="248.5" y="-375.5" font-family="sans" font-size="10.00" fill="#000000">run_star</text>
</g>
<!-- 3&#45;&gt;2 -->
<g id="edge6" class="edge">
<title>3&#45;&gt;2</title>
<path fill="none" stroke="#c0c0c0" stroke-width="2" d="M248.5,-359.8314C248.5,-352.131 248.5,-342.9743 248.5,-334.4166"/>
<polygon fill="#c0c0c0" stroke="#c0c0c0" stroke-width="2" points="252.0001,-334.4132 248.5,-324.4133 245.0001,-334.4133 252.0001,-334.4132"/>
</g>
<!-- 4 -->
<g id="node5" class="node">
<title>4</title>
<path fill="none" stroke="#d89c56" stroke-width="2" d="M109,-468C109,-468 12,-468 12,-468 6,-468 0,-462 0,-456 0,-456 0,-444 0,-444 0,-438 6,-432 12,-432 12,-432 109,-432 109,-432 115,-432 121,-438 121,-444 121,-444 121,-456 121,-456 121,-462 115,-468 109,-468"/>
<text text-anchor="middle" x="60.5" y="-447.5" font-family="sans" font-size="10.00" fill="#000000">get_fastq_dump_files</text>
</g>
<!-- 4&#45;&gt;3 -->
<g id="edge8" class="edge">
<title>4&#45;&gt;3</title>
<path fill="none" stroke="#c0c0c0" stroke-width="2" d="M107.9403,-431.8314C139.7999,-419.6298 181.206,-403.7722 210.8106,-392.4342"/>
<polygon fill="#c0c0c0" stroke="#c0c0c0" stroke-width="2" points="212.2804,-395.6193 220.3672,-388.7743 209.7768,-389.0823 212.2804,-395.6193"/>
</g>
<!-- 5 -->
<g id="node6" class="node">
<title>5</title>
<path fill="none" stroke="#d85656" stroke-width="2" d="M90,-540C90,-540 31,-540 31,-540 25,-540 19,-534 19,-528 19,-528 19,-516 19,-516 19,-510 25,-504 31,-504 31,-504 90,-504 90,-504 96,-504 102,-510 102,-516 102,-516 102,-528 102,-528 102,-534 96,-540 90,-540"/>
<text text-anchor="middle" x="60.5" y="-519.5" font-family="sans" font-size="10.00" fill="#000000">ncbi_prefetch</text>
</g>
<!-- 5&#45;&gt;4 -->
<g id="edge11" class="edge">
<title>5&#45;&gt;4</title>
<path fill="none" stroke="#c0c0c0" stroke-width="2" d="M60.5,-503.8314C60.5,-496.131 60.5,-486.9743 60.5,-478.4166"/>
<polygon fill="#c0c0c0" stroke="#c0c0c0" stroke-width="2" points="64.0001,-478.4132 60.5,-468.4133 57.0001,-478.4133 64.0001,-478.4132"/>
</g>
<!-- 6 -->
<g id="node7" class="node">
<title>6</title>
<path fill="none" stroke="#566bd8" stroke-width="2" d="M231.5,-468C231.5,-468 151.5,-468 151.5,-468 145.5,-468 139.5,-462 139.5,-456 139.5,-456 139.5,-444 139.5,-444 139.5,-438 145.5,-432 151.5,-432 151.5,-432 231.5,-432 231.5,-432 237.5,-432 243.5,-438 243.5,-444 243.5,-444 243.5,-456 243.5,-456 243.5,-462 237.5,-468 231.5,-468"/>
<text text-anchor="middle" x="191.5" y="-447.5" font-family="sans" font-size="10.00" fill="#000000">render_star_script</text>
</g>
<!-- 6&#45;&gt;3 -->
<g id="edge10" class="edge">
<title>6&#45;&gt;3</title>
<path fill="none" stroke="#c0c0c0" stroke-width="2" d="M205.8835,-431.8314C212.4486,-423.5386 220.3507,-413.557 227.5578,-404.4533"/>
<polygon fill="#c0c0c0" stroke="#c0c0c0" stroke-width="2" points="230.4599,-406.4262 233.9228,-396.4133 224.9716,-402.0813 230.4599,-406.4262"/>
</g>
<!-- 7 -->
<g id="node8" class="node">
<title>7</title>
<path fill="none" stroke="#d6d856" stroke-width="2" d="M339,-468C339,-468 274,-468 274,-468 268,-468 262,-462 262,-456 262,-456 262,-444 262,-444 262,-438 268,-432 274,-432 274,-432 339,-432 339,-432 345,-432 351,-438 351,-444 351,-444 351,-456 351,-456 351,-462 345,-468 339,-468"/>
<text text-anchor="middle" x="306.5" y="-447.5" font-family="sans" font-size="10.00" fill="#000000">get_star_index</text>
</g>
<!-- 7&#45;&gt;3 -->
<g id="edge7" class="edge">
<title>7&#45;&gt;3</title>
<path fill="none" stroke="#c0c0c0" stroke-width="2" d="M291.8642,-431.8314C285.1839,-423.5386 277.1432,-413.557 269.8096,-404.4533"/>
<polygon fill="#c0c0c0" stroke="#c0c0c0" stroke-width="2" points="272.3319,-402.0052 263.3329,-396.4133 266.8806,-406.3965 272.3319,-402.0052"/>
</g>
<!-- 8 -->
<g id="node9" class="node">
<title>8</title>
<path fill="none" stroke="#78d856" stroke-width="2" d="M352.5,-540C352.5,-540 260.5,-540 260.5,-540 254.5,-540 248.5,-534 248.5,-528 248.5,-528 248.5,-516 248.5,-516 248.5,-510 254.5,-504 260.5,-504 260.5,-504 352.5,-504 352.5,-504 358.5,-504 364.5,-510 364.5,-516 364.5,-516 364.5,-528 364.5,-528 364.5,-534 358.5,-540 352.5,-540"/>
<text text-anchor="middle" x="306.5" y="-519.5" font-family="sans" font-size="10.00" fill="#000000">get_cellranger_fasta</text>
</g>
<!-- 8&#45;&gt;7 -->
<g id="edge12" class="edge">
<title>8&#45;&gt;7</title>
<path fill="none" stroke="#c0c0c0" stroke-width="2" d="M306.5,-503.8314C306.5,-496.131 306.5,-486.9743 306.5,-478.4166"/>
<polygon fill="#c0c0c0" stroke="#c0c0c0" stroke-width="2" points="310.0001,-478.4132 306.5,-468.4133 303.0001,-478.4133 310.0001,-478.4132"/>
</g>
<!-- 9 -->
<g id="node10" class="node">
<title>9</title>
<path fill="none" stroke="#61d856" stroke-width="2" d="M435.5,-468C435.5,-468 381.5,-468 381.5,-468 375.5,-468 369.5,-462 369.5,-456 369.5,-456 369.5,-444 369.5,-444 369.5,-438 375.5,-432 381.5,-432 381.5,-432 435.5,-432 435.5,-432 441.5,-432 447.5,-438 447.5,-444 447.5,-444 447.5,-456 447.5,-456 447.5,-462 441.5,-468 435.5,-468"/>
<text text-anchor="middle" x="408.5" y="-447.5" font-family="sans" font-size="10.00" fill="#000000">get_bam_ftp</text>
</g>
<!-- 9&#45;&gt;3 -->
<g id="edge9" class="edge">
<title>9&#45;&gt;3</title>
<path fill="none" stroke="#c0c0c0" stroke-width="2" d="M369.3596,-432.3868C343.9288,-420.9429 310.9679,-406.1106 285.8927,-394.8267"/>
<polygon fill="#c0c0c0" stroke="#c0c0c0" stroke-width="2" points="287.2561,-391.6022 276.7006,-390.6903 284.3835,-397.9857 287.2561,-391.6022"/>
</g>
<!-- 10&#45;&gt;0 -->
<g id="edge1" class="edge">
<title>10&#45;&gt;0</title>
<path fill="none" stroke="#c0c0c0" stroke-width="2" d="M265.5656,-71.8314C268.626,-63.9617 272.2779,-54.5712 275.6682,-45.8533"/>
<polygon fill="#c0c0c0" stroke="#c0c0c0" stroke-width="2" points="278.9768,-47.0019 279.3393,-36.4133 272.4527,-44.4647 278.9768,-47.0019"/>
</g>
<!-- 11&#45;&gt;0 -->
<g id="edge4" class="edge">
<title>11&#45;&gt;0</title>
<path fill="none" stroke="#c0c0c0" stroke-width="2" d="M319.6873,-143.7623C313.1773,-119.0928 301.5047,-74.8598 293.8818,-45.9731"/>
<polygon fill="#c0c0c0" stroke="#c0c0c0" stroke-width="2" points="297.2094,-44.8656 291.2736,-36.0896 290.4411,-46.6517 297.2094,-44.8656"/>
</g>
<!-- 12 -->
<g id="node13" class="node">
<title>12</title>
<path fill="none" stroke="#56b1d8" stroke-width="2" d="M431.5,-108C431.5,-108 355.5,-108 355.5,-108 349.5,-108 343.5,-102 343.5,-96 343.5,-96 343.5,-84 343.5,-84 343.5,-78 349.5,-72 355.5,-72 355.5,-72 431.5,-72 431.5,-72 437.5,-72 443.5,-78 443.5,-84 443.5,-84 443.5,-96 443.5,-96 443.5,-102 437.5,-108 431.5,-108"/>
<text text-anchor="middle" x="393.5" y="-87.5" font-family="sans" font-size="10.00" fill="#000000">markers_merged</text>
</g>
<!-- 11&#45;&gt;12 -->
<g id="edge15" class="edge">
<title>11&#45;&gt;12</title>
<path fill="none" stroke="#c0c0c0" stroke-width="2" d="M341.9116,-143.8314C350.021,-135.3694 359.8156,-125.1489 368.682,-115.8971"/>
<polygon fill="#c0c0c0" stroke="#c0c0c0" stroke-width="2" points="371.4618,-118.0549 375.854,-108.4133 366.4079,-113.2115 371.4618,-118.0549"/>
</g>
<!-- 12&#45;&gt;0 -->
<g id="edge3" class="edge">
<title>12&#45;&gt;0</title>
<path fill="none" stroke="#c0c0c0" stroke-width="2" d="M366.4994,-71.8314C353.0669,-62.7927 336.6527,-51.7476 322.1961,-42.0198"/>
<polygon fill="#c0c0c0" stroke="#c0c0c0" stroke-width="2" points="323.7425,-38.8418 313.492,-36.1628 319.8346,-44.6494 323.7425,-38.8418"/>
</g>
</g>
</svg>
